<svg width="51" height="39" viewBox="0 0 51 39" fill="none" xmlns="http://www.w3.org/2000/svg">
<path d="M50.6406 12.6953C50.0657 12.6953 49.4908 12.6953 48.852 12.6953V12.0472C48.852 11.9824 48.852 11.9176 48.852 11.8528C48.852 8.80684 48.852 5.76091 48.852 2.71497C44.3803 2.71497 39.9726 2.71497 35.501 2.71497C35.501 5.82571 35.501 8.93645 35.501 12.0472C36.0759 12.0472 36.6508 12.0472 37.2896 12.0472V12.6953C37.2896 12.7601 37.2896 12.8249 37.2896 12.8897C37.2896 15.8708 37.2896 18.9167 37.2896 21.8979C37.2896 21.9627 37.2896 21.9627 37.2896 22.0275V22.6755C36.9063 22.6755 36.5869 22.6755 36.2036 22.6755C36.2036 25.7863 36.2036 28.897 36.2036 31.943C35.8842 31.943 35.6287 31.943 35.3093 31.943C35.3093 28.573 35.3093 25.203 35.3093 21.8331C34.926 21.8331 34.6066 21.8331 34.1595 21.8331C34.1595 22.2867 34.1595 22.6755 34.1595 23.1292H33.5845C33.5845 15.482 33.5845 7.83473 33.5845 0.1875C33.0096 0.1875 32.3708 0.1875 31.732 0.1875C31.4765 8.28838 31.4765 16.2596 31.4765 24.2957C30.7738 24.2957 30.0711 24.2957 29.4323 24.2957C29.3684 24.2957 29.2407 24.2309 29.2407 24.1013C28.6658 22.9348 28.0908 21.8979 27.5159 20.7313C26.6216 19.1112 25.7911 17.3614 24.8968 15.7412C24.0664 14.1858 23.3637 12.6953 22.5332 11.1399C21.7028 9.64933 20.9362 8.15877 20.1058 6.79782C19.4031 5.63129 18.2532 5.04803 16.9756 4.98322C15.4425 4.91841 13.9733 4.91841 12.4401 4.91841C11.1625 4.91841 9.75714 4.91841 8.47953 4.98322C7.20193 5.04803 6.56312 5.89052 6.56312 7.12185C6.56312 10.2974 6.56312 13.6026 6.56312 16.7781C6.56312 17.6854 6.56312 18.5927 6.56312 19.5648C6.49924 19.5648 6.3076 19.5648 6.24372 19.5648C5.28551 19.5648 4.3273 19.5648 3.30522 19.5648C1.89985 19.6944 0.75 20.8609 0.75 22.4811C0.75 25.6567 0.75 28.897 0.75 32.0078C0.75 33.2391 1.3888 34.1464 2.53865 34.5352C2.60253 34.5352 2.66641 34.6 2.85805 34.6H3.3691C3.3691 34.6649 3.3691 34.7297 3.3691 34.7297C3.3691 36.9979 5.15775 38.8125 7.39357 38.8125C9.5655 38.8125 11.418 36.9979 11.418 34.7945C11.418 34.7297 11.418 34.6649 11.418 34.6H12.2485C15.0592 34.6 17.9977 34.6 20.8085 34.6H21.4473C22.0222 36.9331 24.0664 38.6829 26.6216 38.6829C29.624 38.6829 32.0514 36.2202 32.0514 33.2391C31.9875 30.1932 29.624 27.7953 26.6216 27.7953C23.6192 27.7953 21.2556 30.258 21.2556 33.2391C21.2556 33.3687 21.2556 33.4335 21.2556 33.5631H20.6168C20.4891 30.9708 21.575 28.897 24.0664 27.6657C26.3022 26.4992 28.6019 26.8232 30.4544 28.5082C32.6902 30.4524 33.1374 33.0447 32.1792 35.8314H32.2431C32.7541 35.8314 33.1374 35.8314 33.6484 35.8314C33.6484 34.5352 33.6484 33.2391 33.6484 31.943H34.2234C34.2234 32.3318 34.2234 32.7854 34.2234 33.1743C34.926 33.1743 35.6926 33.1095 36.3953 33.1095C37.5451 33.0447 38.6311 32.9151 39.7809 32.9151C41.2502 32.8503 42.5917 32.7206 44.0609 32.6558C44.8914 32.591 45.658 32.591 46.4884 32.4614C47.0633 32.4614 47.0633 32.3966 47.1911 31.8781C47.9576 31.8781 48.7881 31.8781 49.5547 31.8781C49.5547 28.8322 49.5547 25.7863 49.5547 22.7404C49.5547 22.6755 49.5547 22.6107 49.5547 22.5459V21.8979C49.9379 21.8979 50.2573 21.8979 50.6406 21.8979C50.6406 18.9167 50.6406 15.806 50.6406 12.6953ZM26.5577 30.5172C28.0908 30.4524 29.4962 31.7485 29.4962 33.3039C29.5601 34.9241 28.2825 36.285 26.7493 36.285C25.1523 36.285 23.8108 35.0537 23.8108 33.4335C23.8108 31.8133 25.0246 30.5172 26.5577 30.5172ZM9.5655 34.7945C9.50162 36.0258 8.54341 36.9979 7.39357 36.9979C6.17984 36.9979 5.28551 36.0906 5.28551 34.7945C5.28551 33.5631 6.24372 32.591 7.45745 32.591C8.67118 32.591 9.62938 33.5631 9.5655 34.7945ZM11.2903 33.6927C10.8431 31.943 9.2461 30.7116 7.39357 30.7116C5.47715 30.7116 3.94402 31.943 3.49686 33.6927H2.98582C3.56074 31.1005 5.92432 29.8691 7.77685 29.9339C9.69326 30.0635 11.5458 31.4245 12.0568 33.6927H11.2903ZM23.8108 16.8429C23.6192 16.5837 23.4276 16.5189 23.172 16.6485C22.9804 16.7133 22.9165 16.8429 22.7888 16.9077C21.7667 17.5558 20.6168 18.1391 19.5308 18.7871C19.2753 18.9815 19.2114 19.176 19.2753 19.4352C19.467 19.6944 19.6586 19.6944 19.9141 19.5C20.1697 19.3056 20.4252 19.2408 20.6168 19.1112C20.8723 18.9167 21.0001 18.8519 21.2556 18.7223C21.575 19.3056 21.8944 19.8888 22.2138 20.4721C22.0222 20.6665 21.8944 20.7313 21.7028 20.8609C22.5332 22.6107 23.2359 24.2309 24.0664 25.9159C23.8747 25.9159 23.747 25.9159 23.6831 25.9159C21.1917 25.9159 18.7004 25.9159 16.1452 25.9159C15.9535 25.9159 15.8897 25.8511 15.8258 25.7215C15.4425 25.0086 15.1231 24.2309 14.6759 23.518C14.6759 23.4532 14.6121 23.3884 14.5482 23.3884C14.9953 23.3884 15.4425 23.3884 15.8897 23.3884C16.2729 23.3884 16.5924 23.1292 16.7201 22.8052C16.6562 22.4811 16.4646 22.1571 16.1452 21.9627C15.9535 21.8979 15.8897 21.8979 15.7619 21.8979C14.0371 21.8979 12.3762 21.8979 10.6515 21.8979C10.5876 21.8979 10.4598 21.8979 10.3959 21.8979C10.3959 21.5738 10.3959 21.3146 10.3959 20.9906C10.3959 19.176 10.3959 17.3614 10.3959 15.5468C10.3959 15.1579 10.1404 14.8987 9.82102 14.8339C9.50162 14.7691 9.11834 15.0283 8.99058 15.3524C8.99058 15.4172 8.99058 15.5468 8.99058 15.6116C8.99058 18.1391 8.99058 20.6665 8.99058 23.2588C8.99058 23.2588 8.99058 23.2588 8.99058 23.3236C8.67117 23.3236 8.28789 23.3236 7.96849 23.3236C7.90461 23.3236 7.71297 23.3236 7.58521 23.3236C7.58521 23.1292 7.58521 23.0644 7.58521 22.9996C7.58521 21.3794 7.58521 19.6944 7.58521 18.0742C7.58521 15.0283 7.58521 12.112 7.58521 9.06607C7.58521 8.74203 7.58521 8.418 7.58521 8.15877C7.64909 7.12185 8.41565 6.34417 9.43774 6.34417C10.2682 6.34417 10.9709 6.27936 11.8013 6.27936C13.3344 6.27936 14.8676 6.27936 16.4007 6.27936C17.4228 6.27936 18.3171 6.66821 19.0837 7.5107C19.467 8.09396 19.9141 8.67722 20.2974 9.32529C21.5111 11.4639 22.661 13.6674 23.747 15.8708C24.1302 16.5837 24.5774 17.4262 24.8968 18.2687C25.0884 18.3335 25.0884 18.5279 25.0884 18.5927C24.4496 19.1112 23.8747 19.5648 23.2359 20.0185C22.9165 19.4352 22.5971 18.9815 22.2777 18.3983C22.7888 18.0742 23.2359 17.815 23.6831 17.5558C23.8747 17.2966 23.9386 17.1021 23.8108 16.8429ZM39.9726 12.0472C42.0806 12.0472 44.1887 12.0472 46.2329 12.0472V12.6953C44.1248 12.6953 42.0168 12.6953 39.9726 12.6953V12.0472ZM46.9356 22.6755C44.6359 22.6755 42.2723 22.6755 39.9726 22.6755V22.0275C42.2723 22.0275 44.6359 22.0275 46.9356 22.0275V22.6755Z" fill="#26AAE1"/>
</svg>
