<svg width="37" height="47" viewBox="0 0 37 47" fill="none" xmlns="http://www.w3.org/2000/svg">
<path d="M36.9581 36.5398C36.7953 34.3322 36.1506 32.2484 35.2519 30.2361C33.129 25.4888 30.0813 21.3992 26.3759 17.7849C25.0083 16.4499 23.5561 15.2257 21.8565 14.3335C22.0909 14.4051 22.2212 14.3335 22.3774 14.1447C23.2501 13.1222 24.1357 12.1129 25.0214 11.097C25.7051 10.309 26.3889 9.52756 27.0727 8.73959C27.8607 7.83441 27.9193 6.812 27.255 5.81565C26.8382 5.19048 26.2717 4.72812 25.614 4.33088C24.9041 5.28165 24.1943 6.22591 23.491 7.17017C23.478 7.15714 23.465 7.14412 23.4519 7.1311C23.491 7.03993 23.5236 6.95527 23.5627 6.8641C24.1878 5.36631 24.813 3.86852 25.4447 2.37073C25.5293 2.17537 25.5228 2.04513 25.3274 1.94745C24.9628 1.75859 24.6176 1.51765 24.2334 1.3874C21.3616 0.430121 18.4441 0.358487 15.5072 0.977139C14.6866 1.15297 13.9052 1.44601 13.2605 2.01257C13.0977 2.15583 13.0456 2.29259 13.1107 2.52051C13.4949 3.75782 13.8661 5.00163 14.2438 6.24545C14.4782 7.03341 14.7127 7.82789 14.9471 8.61586C14.8494 8.53771 14.8038 8.44654 14.7583 8.34886C14.0875 7.0269 13.4233 5.69843 12.746 4.38298C12.7004 4.29832 12.5376 4.1811 12.4725 4.20715C11.1245 4.663 9.99139 5.40538 9.35971 6.72734C9.07318 7.33297 9.17737 7.89301 9.6202 8.41398C10.7533 9.72943 11.8669 11.0644 12.987 12.3864C13.547 13.0441 14.1071 13.7083 14.6801 14.3791C15.3769 13.9037 16.1323 13.6953 16.9333 13.6823C17.2654 13.6758 17.5975 13.6823 17.9362 13.6888C17.8515 13.6953 17.7669 13.7018 17.6757 13.7083C17.5324 13.7214 17.3566 13.8386 17.2654 13.9558C16.5035 14.9717 15.7546 15.9941 14.9992 17.0165C14.8299 17.2444 14.6606 17.4723 14.4848 17.7003C14.4652 17.6872 14.4457 17.6742 14.4261 17.6612C15.1229 16.4174 15.8197 15.1801 16.5556 13.8516C16.2561 13.9428 16.0216 13.9884 15.8067 14.073C14.8234 14.4572 13.9898 15.0889 13.1823 15.7336C9.15133 18.9571 5.8627 22.8383 3.25785 27.2926C1.57773 30.171 0.288327 33.1926 0.0343541 36.5724C-0.147985 39.0145 0.386009 41.2611 1.86426 43.2538C2.8541 44.5888 4.08489 45.5591 5.76502 45.8522C7.28886 46.1127 8.80618 46.4448 10.343 46.5881C12.4986 46.7899 14.6671 46.9006 16.8356 46.9658C19.8182 47.0634 22.8007 46.9462 25.7768 46.6922C27.6783 46.5294 29.5668 46.308 31.4228 45.8326C32.2498 45.6177 33.0769 45.3898 33.7476 44.8102C36.3004 42.6287 37.199 39.7959 36.9581 36.5398ZM19.7596 13.4153C19.9549 13.0441 20.2284 12.712 20.4694 12.3668C20.8797 11.7742 21.2899 11.1816 21.7002 10.589C21.7197 10.6021 21.7393 10.6086 21.7588 10.6216C21.3225 11.67 20.8927 12.725 20.4564 13.7735C20.4433 13.7669 20.4368 13.7669 20.4238 13.7604C20.4303 13.78 20.4303 13.7995 20.4368 13.819C20.4238 13.8451 20.4173 13.8711 20.4043 13.8972C20.4238 13.9037 20.4368 13.9037 20.4564 13.9102C20.782 15.3754 21.0815 16.7235 21.3811 18.078C21.2899 18.0194 21.2508 17.9412 21.2183 17.8631C20.5866 16.5411 19.9614 15.2192 19.3298 13.9037C19.3037 13.8581 19.2647 13.7995 19.2191 13.7539C19.447 13.7474 19.6163 13.6758 19.7596 13.4153ZM21.9542 39.0535C21.1597 39.5029 20.2805 39.6982 19.3298 39.7959C19.3298 40.3234 19.3363 40.8378 19.3233 41.3393C19.3167 41.6193 19.2907 41.8993 19.2386 42.1793C19.18 42.4984 18.9651 42.6547 18.633 42.6547C18.2422 42.6547 18.0208 42.5375 17.9362 42.2054C17.8776 41.9905 17.858 41.7561 17.8515 41.5281C17.8385 40.9681 17.845 40.4015 17.845 39.848C17.3371 39.7308 16.8421 39.6592 16.3733 39.5094C14.602 38.9428 13.28 37.8748 12.6809 36.0645C12.5702 35.7323 12.5181 35.3677 12.5051 35.016C12.479 34.2997 13.0326 33.642 13.7098 33.5312C14.5303 33.401 15.1425 33.7461 15.4095 34.495C15.5723 34.9444 15.709 35.4002 15.9109 35.83C16.2886 36.6571 16.9398 37.1715 17.8385 37.4125C17.845 37.2952 17.8515 37.1976 17.8515 37.1064C17.8515 35.5305 17.845 33.961 17.858 32.3851C17.858 32.1246 17.7669 32.04 17.5389 31.9683C16.8226 31.7209 16.0932 31.4995 15.416 31.1739C13.8075 30.4119 12.9935 29.116 12.9544 27.3252C12.9218 25.8339 13.3712 24.551 14.5499 23.5807C15.3704 22.91 16.3472 22.6039 17.3826 22.4541C17.5324 22.4346 17.6822 22.4085 17.858 22.3825C17.858 22.0113 17.8515 21.6531 17.858 21.3015C17.8645 21.1061 17.8776 20.9107 17.9232 20.7219C18.0013 20.3898 18.2422 20.214 18.5874 20.2074C18.9521 20.2009 19.2126 20.3702 19.2712 20.7219C19.3298 21.0736 19.3233 21.4317 19.3363 21.7899C19.3428 21.9722 19.3363 22.1546 19.3363 22.3564C19.8117 22.4541 20.2805 22.5258 20.7364 22.656C22.4165 23.1314 23.491 24.2384 23.999 25.886C24.1813 26.4721 24.0771 27.0321 23.5887 27.4619C23.1263 27.8722 22.5923 27.9243 22.0388 27.7159C21.5309 27.5271 21.3029 27.0973 21.1727 26.6089C20.9448 25.7883 20.4694 25.1762 19.6879 24.8245C19.5903 24.7789 19.4926 24.7529 19.3623 24.7008C19.3558 24.8441 19.3493 24.9483 19.3493 25.0525C19.3493 26.42 19.3558 27.7876 19.3428 29.1551C19.3428 29.396 19.3949 29.5133 19.6489 29.5784C20.2154 29.7217 20.7755 29.8975 21.3225 30.0928C23.2761 30.7831 24.4678 32.1311 24.6046 34.228C24.7218 36.3575 23.8231 37.9921 21.9542 39.0535Z" fill="#EF2D56"/>
</svg>
