<svg width="38" height="47" viewBox="0 0 38 47" fill="none" xmlns="http://www.w3.org/2000/svg">
<path d="M37.0274 36.5398C36.8646 34.3322 36.2199 32.2484 35.3212 30.2361C33.1983 25.4888 30.1506 21.3992 26.4452 17.7849C25.0777 16.4499 23.6255 15.2257 21.9258 14.3335C22.1602 14.4051 22.2905 14.3335 22.4468 14.1447C23.3194 13.1222 24.2051 12.1129 25.0907 11.097C25.7745 10.309 26.4583 9.52756 27.142 8.73959C27.93 7.83441 27.9886 6.812 27.3244 5.81565C26.9076 5.19048 26.341 4.72812 25.6833 4.33088C24.9735 5.28165 24.2637 6.22591 23.5604 7.17017C23.5473 7.15714 23.5343 7.14412 23.5213 7.1311C23.5604 7.03993 23.5929 6.95527 23.632 6.8641C24.2572 5.36631 24.8823 3.86852 25.514 2.37073C25.5986 2.17537 25.5921 2.04513 25.3968 1.94745C25.0321 1.75859 24.687 1.51765 24.3027 1.3874C21.4309 0.430121 18.5135 0.358487 15.5765 0.977139C14.756 1.15297 13.9745 1.44601 13.3298 2.01257C13.167 2.15583 13.1149 2.29259 13.18 2.52051C13.5642 3.75782 13.9354 5.00163 14.3131 6.24545C14.5476 7.03341 14.782 7.82789 15.0165 8.61586C14.9188 8.53771 14.8732 8.44654 14.8276 8.34886C14.1569 7.0269 13.4926 5.69843 12.8154 4.38298C12.7698 4.29832 12.607 4.1811 12.5418 4.20715C11.1938 4.663 10.0607 5.40538 9.42905 6.72734C9.14252 7.33297 9.24671 7.89301 9.68953 8.41398C10.8226 9.72943 11.9362 11.0644 13.0563 12.3864C13.6163 13.0441 14.1764 13.7083 14.7495 14.3791C15.4463 13.9037 16.2017 13.6953 17.0026 13.6823C17.3348 13.6758 17.6669 13.6823 18.0055 13.6888C17.9209 13.6953 17.8362 13.7018 17.745 13.7083C17.6018 13.7214 17.4259 13.8386 17.3348 13.9558C16.5728 14.9717 15.824 15.9941 15.0685 17.0165C14.8992 17.2444 14.7299 17.4723 14.5541 17.7003C14.5346 17.6872 14.515 17.6742 14.4955 17.6612C15.1923 16.4174 15.8891 15.1801 16.6249 13.8516C16.3254 13.9428 16.091 13.9884 15.8761 14.073C14.8927 14.4572 14.0592 15.0889 13.2517 15.7336C9.22066 18.9571 5.93204 22.8383 3.32719 27.2926C1.64706 30.171 0.357663 33.1926 0.10369 36.5724C-0.0786494 39.0145 0.455345 41.2611 1.9336 43.2538C2.92344 44.5888 4.15423 45.5591 5.83436 45.8522C7.35819 46.1127 8.87552 46.4448 10.4124 46.5881C12.5679 46.7899 14.7364 46.9006 16.905 46.9658C19.8875 47.0634 22.8701 46.9462 25.8461 46.6922C27.7476 46.5294 29.6362 46.308 31.4921 45.8326C32.3192 45.6177 33.1462 45.3898 33.8169 44.8102C36.3697 42.6287 37.2684 39.7959 37.0274 36.5398ZM19.8289 13.4153C20.0243 13.0441 20.2978 12.712 20.5387 12.3668C20.949 11.7742 21.3593 11.1816 21.7695 10.589C21.7891 10.6021 21.8086 10.6086 21.8281 10.6216C21.3918 11.67 20.962 12.725 20.5257 13.7735C20.5127 13.7669 20.5062 13.7669 20.4931 13.7604C20.4997 13.78 20.4997 13.7995 20.5062 13.819C20.4931 13.8451 20.4866 13.8711 20.4736 13.8972C20.4931 13.9037 20.5062 13.9037 20.5257 13.9102C20.8513 15.3754 21.1509 16.7235 21.4504 18.078C21.3593 18.0194 21.3202 17.9412 21.2876 17.8631C20.6559 16.5411 20.0308 15.2192 19.3991 13.9037C19.3731 13.8581 19.334 13.7995 19.2884 13.7539C19.5163 13.7474 19.6856 13.6758 19.8289 13.4153ZM22.0235 39.0535C21.229 39.5029 20.3499 39.6982 19.3991 39.7959C19.3991 40.3234 19.4056 40.8378 19.3926 41.3393C19.3861 41.6193 19.36 41.8993 19.3079 42.1793C19.2493 42.4984 19.0344 42.6547 18.7023 42.6547C18.3116 42.6547 18.0902 42.5375 18.0055 42.2054C17.9469 41.9905 17.9274 41.7561 17.9209 41.5281C17.9078 40.9681 17.9143 40.4015 17.9143 39.848C17.4064 39.7308 16.9115 39.6592 16.4426 39.5094C14.6713 38.9428 13.3493 37.8748 12.7502 36.0645C12.6395 35.7323 12.5874 35.3677 12.5744 35.016C12.5484 34.2997 13.1019 33.642 13.7791 33.5312C14.5997 33.401 15.2118 33.7461 15.4788 34.495C15.6416 34.9444 15.7784 35.4002 15.9802 35.83C16.3579 36.6571 17.0092 37.1715 17.9078 37.4125C17.9143 37.2952 17.9209 37.1976 17.9209 37.1064C17.9209 35.5305 17.9143 33.961 17.9274 32.3851C17.9274 32.1246 17.8362 32.04 17.6083 31.9683C16.8919 31.7209 16.1626 31.4995 15.4853 31.1739C13.8768 30.4119 13.0628 29.116 13.0237 27.3252C12.9912 25.8339 13.4405 24.551 14.6192 23.5807C15.4397 22.91 16.4166 22.6039 17.452 22.4541C17.6018 22.4346 17.7515 22.4085 17.9274 22.3825C17.9274 22.0113 17.9209 21.6531 17.9274 21.3015C17.9339 21.1061 17.9469 20.9107 17.9925 20.7219C18.0706 20.3898 18.3116 20.214 18.6567 20.2074C19.0214 20.2009 19.2819 20.3702 19.3405 20.7219C19.3991 21.0736 19.3926 21.4317 19.4056 21.7899C19.4121 21.9722 19.4056 22.1546 19.4056 22.3564C19.881 22.4541 20.3499 22.5258 20.8057 22.656C22.4859 23.1314 23.5604 24.2384 24.0683 25.886C24.2506 26.4721 24.1464 27.0321 23.658 27.4619C23.1957 27.8722 22.6617 27.9243 22.1082 27.7159C21.6002 27.5271 21.3723 27.0973 21.242 26.6089C21.0141 25.7883 20.5387 25.1762 19.7573 24.8245C19.6596 24.7789 19.5619 24.7529 19.4317 24.7008C19.4252 24.8441 19.4186 24.9483 19.4186 25.0525C19.4186 26.42 19.4252 27.7876 19.4121 29.1551C19.4121 29.396 19.4642 29.5133 19.7182 29.5784C20.2848 29.7217 20.8448 29.8975 21.3918 30.0928C23.3455 30.7831 24.5372 32.1311 24.6739 34.228C24.7911 36.3575 23.8925 37.9921 22.0235 39.0535Z" fill="#00A44B"/>
<path d="M19.4121 32.5349C19.4121 34.189 19.4121 35.8431 19.4121 37.4972C20.6104 37.4385 21.7435 36.3445 21.8151 35.1919C21.8933 33.8113 20.9685 32.7824 19.4121 32.5349Z" fill="#00A44B"/>
<path d="M15.8825 26.928C15.9086 27.9634 16.677 28.7709 17.9013 29.0119C17.9013 27.5727 17.9013 26.14 17.9013 24.6748C16.1886 25.1567 15.8565 25.9056 15.8825 26.928Z" fill="#00A44B"/>
</svg>
